<?xml version="1.0" encoding="UTF-8"?>
<!DOCTYPE svg PUBLIC "-//W3C//DTD SVG 1.1//EN" "http://www.w3.org/Graphics/SVG/1.1/DTD/svg11.dtd">
<!-- Creator: CorelDRAW -->
<svg xmlns="http://www.w3.org/2000/svg" xml:space="preserve" width="3.2174mm" height="26.2466mm" style="shape-rendering:geometricPrecision; text-rendering:geometricPrecision; image-rendering:optimizeQuality; fill-rule:evenodd; clip-rule:evenodd"
viewBox="0 0 0.0891134 0.726961"
 xmlns:xlink="http://www.w3.org/1999/xlink">
 <defs>
  <style type="text/css">
   <![CDATA[
    .fil0 {fill:white}
   ]]>
  </style>
 </defs>
 <g id="Layer_x0020_1">
  <metadata id="CorelCorpID_0Corel-Layer"/>
  <path class="fil0" d="M-0 0.532323l0.0891106 0 0 0.0891106 -0.0891106 0 0 -0.0891106zm0.0328961 0.030877l0.0233849 0.0136714 -0.0234486 0.013688 6.37039e-005 -0.0273594z"/>
  <path class="fil0" d="M-0 0l0.0891106 0 0 0.0891106 -0.0891106 0 0 -0.0891106zm0.0655541 0.0500879c0,0.00212439 -0.00127685,0.00392194 -0.00380284,0.0053899 -0.00221856,0.00125192 -0.00447312,0.00188342 -0.00678585,0.00188342 -0.00183633,0 -0.0034594,-0.000332368 -0.00485257,-0.000974946 -0.00181418,-0.000847538 -0.00273096,-0.00206345 -0.00273096,-0.00367544 0,-0.00200252 0.00137102,-0.00363666 0.00408813,-0.00488858 0.00219363,-0.0010248 0.00441219,-0.00153997 0.00667783,-0.00153997 0.00161198,0 0.00302732,0.000252046 0.00425708,0.000742289l0 -0.0156573 -0.0208921 0.00925368 0 0.0216316c0,0.00209669 -0.00123807,0.00389702 -0.00373083,0.00541206 -0.00219363,0.00132393 -0.00440942,0.00199144 -0.00667783,0.00199144 -0.00181141,0 -0.00342062,-0.000321289 -0.00481934,-0.000977716 -0.00180864,-0.000811532 -0.00272819,-0.00203852 -0.00272819,-0.00367267 0,-0.00198036 0.00135717,-0.00360065 0.00405489,-0.00488858 0.00219363,-0.0010248 0.00440942,-0.00153997 0.00667783,-0.00153997 0.0015372,0 0.00290822,0.000240967 0.00412413,0.000703512l0 -0.0278774 0.0271406 -0.0119486 0 0.0306333z"/>
  <path class="fil0" d="M-0 0.317051l0.0891106 0 0 0.0891106 -0.0891106 0 0 -0.0891106zm0.0636374 0.0491462l-0.0336883 0.0193327c-0.000767216,0.000409921 -0.00153443,0.000603802 -0.00233489,0.000573335 -0.000800453,-1.66184e-005 -0.0015372,-0.000229888 -0.00220471,-0.00062042 -0.000686894,-0.000393302 -0.00122422,-0.00093063 -0.00165076,-0.00161752 -0.000407151,-0.000686894 -0.00062042,-0.00147073 -0.000637039,-0.0023515l0 -0.0398121c1.66184e-005,-0.000880775 0.000229888,-0.00166461 0.000637039,-0.0023515 0.000426539,-0.000670276 0.000963867,-0.0012076 0.00163414,-0.00160091 0.000684124,-0.000390532 0.00142087,-0.000603802 0.00220471,-0.000637039 0.000800453,-3.04671e-005 0.00158429,0.000163414 0.0023515,0.000573335l0.0336883 0.0204766c0.000783835,0.000457006 0.00137102,0.00104419 0.00176155,0.0017477 0.000393302,0.000717361 0.000589953,0.00148458 0.000589953,0.00228503 0,0.000800453 -0.000196651,0.00155105 -0.000589953,0.00227118 -0.000390532,0.000700743 -0.000977716,0.0012907 -0.00176155,0.00173108z"/>
  <path class="fil0" d="M-0 0.104621l0.0891106 0 0 0.0891106 -0.0891106 0 0 -0.0891106zm0.0693237 0.0510822c0,0.00250661 -0.00150397,0.00462545 -0.0044842,0.00635654 -0.0026174,0.00147904 -0.00527911,0.00222133 -0.00800453,0.00222133 -0.00216593,0 -0.00407982,-0.000390532 -0.00572227,-0.00114944 -0.002141,-0.000999874 -0.00322397,-0.00243183 -0.00322397,-0.00433463 0,-0.00236258 0.00162029,-0.00429032 0.00482211,-0.00576382 0.0025897,-0.00121314 0.00520433,-0.00181695 0.00787712,-0.00181695 0.00190004,0 0.00357019,0.000296361 0.00502153,0.000875236l0 -0.0184658 -0.0246395 0.0109128 0 0.0255148c0,0.0024706 -0.00146242,0.00459499 -0.00440388,0.00638147 -0.00258416,0.00156213 -0.00519879,0.00234873 -0.00787435,0.00234873 -0.00213823,0 -0.0040355,-0.000379453 -0.00568349,-0.00115221 -0.00213269,-0.000958328 -0.00321843,-0.0024069 -0.00321843,-0.00433186 0,-0.00233489 0.00160091,-0.00424877 0.00478056,-0.00576382 0.0025897,-0.00121314 0.00520156,-0.00181971 0.00787989,-0.00181971 0.00181141,0 0.00342893,0.000285283 0.00486365,0.00083092l0 -0.0328795 0.0320098 -0.0140952 0 0.0361312z"/>
  <path class="fil0" d="M-0 0.210234l0.0891106 0 0 0.0891106 -0.0891106 0 0 -0.0891106zm0.0697114 0.0292899c-8.3092e-006,-0.000379453 -0.000110789,-0.000703512 -0.00030744,-0.000999874 -0.000193881,-0.000293592 -0.000462545,-0.000509631 -0.000792144,-0.000664736 -0.00010802,-3.87763e-005 -0.000227118,-7.47828e-005 -0.000354526,-9.69407e-005 -0.000113559,-2.49276e-005 -0.000232658,-4.43157e-005 -0.000343447,-4.43157e-005 -0.000240967,0 -0.000465315,4.43157e-005 -0.000686894,0.000132947 -0.000213269,8.86315e-005 -0.000407151,0.000218809 -0.000576105,0.000404381l-0.0113116 0.0112867 0 -0.00462545c-8.3092e-006,-0.00112728 -0.000229888,-0.00218532 -0.000637039,-0.0031575 -0.00041823,-0.000972176 -0.000999874,-0.00182525 -0.00173662,-0.00256477 -0.000739519,-0.000736749 -0.0015926,-0.00131839 -0.00256477,-0.00173662 -0.000983255,-0.00041823 -0.00203021,-0.00062873 -0.0031575,-0.000637039l-0.019762 0c-0.00112174,8.3092e-006 -0.00217147,0.000218809 -0.00314365,0.000637039 -0.000972176,0.00041823 -0.00182525,0.000999874 -0.00256477,0.00173662 -0.000745058,0.000739519 -0.00131839,0.0015926 -0.00173662,0.00256477 -0.00041823,0.000972176 -0.00062873,0.00203021 -0.000637039,0.0031575l0 0.019762c8.3092e-006,0.00112174 0.000218809,0.00217147 0.000637039,0.00314365 0.00041823,0.000972176 0.000991565,0.00182525 0.00173662,0.00256477 0.000739519,0.000745058 0.0015926,0.00131839 0.00256477,0.00173662 0.000972176,0.000420999 0.00202191,0.00062873 0.00314365,0.000637039l0.019762 0c0.00112728,-8.3092e-006 0.00217424,-0.000216039 0.0031575,-0.000637039 0.000972176,-0.00041823 0.00182525,-0.000991565 0.00256477,-0.00173662 0.000736749,-0.000739519 0.00131839,-0.0015926 0.00173662,-0.00256477 0.000407151,-0.000972176 0.00062873,-0.00202191 0.000637039,-0.00314365l0 -0.00466423 0.0113116 0.0113116c0.000168954,0.000185572 0.000362835,0.000321289 0.000576105,0.000404381 0.000221579,9.14012e-005 0.000445927,0.000132947 0.000686894,0.000132947 0.000110789,0 0.000229888,-1.93881e-005 0.000343447,-4.1546e-005 0.000127408,-2.49276e-005 0.000246506,-6.09341e-005 0.000354526,-9.97104e-005 0.000329598,-0.000146796 0.000598262,-0.000371144 0.000792144,-0.000664736 0.000196651,-0.000290822 0.000299131,-0.00062042 0.00030744,-0.000986025l0 -0.0305474z"/>
  <path class="fil0" d="M-0 0.426755l0.0891106 0 0 0.0891106 -0.0891106 0 0 -0.0891106zm0.0206539 0.0165159l0.0479358 0.0280242 -0.048066 0.0280574 0.000130177 -0.0560816z"/>
  <path class="fil0" d="M2.76973e-006 0.63785l0.0891106 0 0 0.0891106 -0.0891106 0 0 -0.0891106zm0.0555165 0.0471963l-0.0193494 0.0111039c-0.000440388,0.000235427 -0.000883545,0.000346217 -0.00134332,0.000329598 -0.000459776,-1.10789e-005 -0.000880775,-0.000132947 -0.00126577,-0.000357296 -0.000393302,-0.000224348 -0.000703512,-0.000534559 -0.000947249,-0.000927861 -0.000232658,-0.000396072 -0.000357296,-0.000844769 -0.000365605,-0.00135163l0 -0.0228669c8.3092e-006,-0.000506861 0.000132947,-0.000955558 0.000365605,-0.00135163 0.000243737,-0.000384993 0.000553947,-0.000692433 0.00093894,-0.000919552 0.000393302,-0.000224348 0.000814302,-0.000346217 0.00126577,-0.000365605 0.000459776,-1.66184e-005 0.000911242,9.41709e-005 0.00135163,0.000329598l0.0193494 0.0117603c0.000448697,0.000263125 0.000786604,0.000601032 0.00101095,0.00100541 0.000227118,0.00041269 0.000340677,0.000853078 0.000340677,0.00131285 0,0.000459776 -0.000113559,0.000889084 -0.000340677,0.00130454 -0.000224348,0.000401611 -0.000562256,0.000739519 -0.00101095,0.000994334z"/>
 </g>
</svg>
